<?xml version="1.0" standalone="no"?>
<!DOCTYPE svg PUBLIC "-//W3C//DTD SVG 20010904//EN"
 "http://www.w3.org/TR/2001/REC-SVG-20010904/DTD/svg10.dtd">
<svg version="1.0" xmlns="http://www.w3.org/2000/svg"
 width="1024.000000pt" height="1024.000000pt" viewBox="0 0 1024.000000 1024.000000"
 preserveAspectRatio="xMidYMid meet">

<g transform="translate(0.000000,1024.000000) scale(0.100000,-0.100000)"
fill="#000000" stroke="none">
<path d="M2290 8378 c0 -60 502 -5753 507 -5758 9 -7 741 -210 759 -210 6 0
74 245 153 544 l142 544 -63 731 -63 731 255 0 255 0 145 553 c79 303 146 560
148 570 4 16 -22 17 -447 17 -248 0 -451 2 -451 4 0 13 -91 1061 -95 1104 l-6
52 655 0 c361 0 656 2 656 5 0 5 273 1052 286 1098 5 16 -67 17 -1415 17 -782
0 -1421 -1 -1421 -2z"/>
<path d="M5706 8363 c-9 -29 -286 -1094 -286 -1098 0 -3 290 -5 645 -5 509 0
645 -3 645 -12 0 -26 -91 -1084 -96 -1115 l-5 -33 -751 -2 -751 -3 -143 -547
c-78 -301 -145 -557 -149 -568 -6 -20 -4 -20 844 -20 804 0 851 -1 851 -17 -1
-73 -139 -1436 -146 -1442 -7 -7 -1177 -325 -1235 -336 -10 -2 -176 39 -370
91 -193 52 -356 93 -362 91 -12 -4 -297 -1079 -288 -1088 3 -4 231 -68 506
-144 l499 -138 1165 322 c640 176 1165 322 1167 323 1 2 113 1281 248 2843
135 1562 248 2857 251 2878 l5 37 -1119 0 c-1058 0 -1120 -1 -1125 -17z"/>
</g>
</svg>
